<svg xmlns="http://www.w3.org/2000/svg" xml:space="preserve" viewBox="0 0 338.0815 130.389">
  <path d="M323.4968.9656c-1.3606-.0153-3.9574.1082-8.9052.6647-9.8955 1.1133-11.8758 13.2339-11.8758 13.2339l-.1228 22.5143s-.4963 23.3778-.1252 33.2733c.3494 11.7323 12.5647 12.7117 12.5647 12.7117s3.4615.395 9.9495-.3422c12.0467-1.3689 12.1216-11.0092 12.1216-11.0092V51.6018h-15.5859v16.3273s-.1232 6.1856-4.3286 6.062c-4.2056-.1237-5.0724-6.062-5.0724-6.062v-28.326h25.9763s-.2475-12.6158-.6187-24.243c-.4628-7.2457-6.5063-14.0039-13.9777-14.3945ZM83.9006 8.4338v16.0794h-9.1532l-.2457 10.2676h9.028l-.2457 61.9087s-.0102 13.243 17.5648 12.4309c16.862-.7793 16.4502-11.132 16.4502-11.132v-37.85h-15.5134V95.586s.8066 3.5958-3.5959 3.5958c-4.5775 0-4.6402-2.6787-4.6402-2.6787V34.8137h13.7297V24.2674H93.5495V8.4338Zm231.9876 3.1856h.003c.072-.003.146 0 .2217.0059.0764.0073.1494.0166.2216.0305a2.115 2.115 0 0 1 .2106.0549c.068.0211.1337.0447.1974.0724.0639.0277.1265.0585.1864.0922a2.2368 2.2368 0 0 1 .3354.2347c.0522.0441.1031.0897.1515.1384.0488.0485.0955.0987.1406.1514.0449.0525.0879.1085.1295.1645.0425.056.0818.1122.1206.1712.0381.059.0744.1205.1095.182.034.0615.0706.123.1032.1866.065.127.124.2584.1779.3905.054.1321.101.266.1448.3993.0436.1333.0836.2667.1185.397.034.1305.0654.2582.0922.3819.0255.1236.0484.2424.0678.3553.0213.113.038.22.0506.3182.0255.1964.0427.3598.0526.4739.009.114.0132.1777.0132.1777v15.788h-5.8162l.3927-15.3928s.003-.079.0213-.215c.0132-.1358.0381-.3296.0747-.5616a8.5273 8.5273 0 0 1 .0637-.373c.0255-.1326.0517-.2727.0832-.4169a8.2783 8.2783 0 0 1 .1053-.4431 7.349 7.349 0 0 1 .1337-.4564 7.5757 7.5757 0 0 1 .1622-.4541 5.6532 5.6532 0 0 1 .1953-.4344 3.9263 3.9263 0 0 1 .1075-.2084 4.2709 4.2709 0 0 1 .1184-.1953c.0425-.0638.0832-.127.1273-.1865a2.8743 2.8743 0 0 1 .1384-.1711 2.4647 2.4647 0 0 1 .1447-.1558 2.1574 2.1574 0 0 1 .158-.1382c.054-.0429.1095-.0823.1668-.1184a1.7086 1.7086 0 0 1 .18-.0966 1.524 1.524 0 0 1 .1864-.0745 1.6163 1.6163 0 0 1 .4101-.0747zM40.5087 15.1253v52.6546H30.364V15.3008H1.5004l-.351 113.7033h29.6138V84.2214h7.1216v46.007h17.4945V15.1252Zm108.5915.7613c-1.5384-.0349-4.4603-.0191-9.9956.182-14.2838.5188-15.463 13.9755-15.463 13.9755v33.3984s.134 2.635 1.8759 3.9996c4.8254 3.718 10.248 6.6664 15.0702 10.4102l-.6801 22.0184s-.988 4.6386-4.4516 4.5766c-3.4633-.0618-3.587-4.6994-3.587-4.6994V75.7505h-10.3905s-.62 15.9568-.7438 27.6459c-.1238 11.689 18.6178 12.183 18.6178 12.183s8.6799-.1461 9.1531-.1844c18.135-1.4373 18.2449-17.999 18.2449-17.999s.1855-12.8639 0-23.5015c-.1855-10.6378-9.2782-14.2256-9.2782-14.2256l-21.0904-11.6871s-1.174-.4948-1.7924-1.2989c-.6185-.804-.4959-2.0425-.4959-2.0425v-16.946s.0004-1.536 2.907-1.6082c2.4914-.0619 2.4133 1.5972 2.4133 1.5972v18.3809h24.0588s.9278-10.5772 0-19.6688C162.35 15.3928 150.794 16.005 150.794 16.005s-.1552-.0836-1.6937-.1184zm45.5068.7108-25.8513.6187 10.7614 97.0995 25.9763-.2478 8.1636-89.8003-9.401.2457-4.0808 37.1084zm77.5581 3.0935-.248 76.8122h48.2406V85.248h-26.9658V19.691Zm-51.8275 1.1123-.373 10.8842h16.0816V20.8032Zm24.366.6187-.2459 92.1522h48.7341v-10.5134h-27.8302V21.422Zm-24.8618 16.8232.4958 69.763h15.3378V38.245Zm-158.947 1.8538.123 10.5156h17.6239V40.099Zm0 16.2045.123 68.6507h17.3167V56.3034Z" />
</svg>




